<svg width="55" height="55" viewBox="0 0 55 55" fill="none" xmlns="http://www.w3.org/2000/svg">
<path d="M40 0H15C6.71573 0 0 6.71573 0 15V40C0 48.2843 6.71573 55 15 55H40C48.2843 55 55 48.2843 55 40V15C55 6.71573 48.2843 0 40 0Z" fill="url(#paint0_linear_387_1923)"/>
<g clip-path="url(#clip0_387_1923)">
<path d="M18.5308 7.01124C18.1607 7.07153 17.7166 7.26678 17.4034 7.50796C16.4555 8.23438 15.721 9.77624 15.4107 11.6971C15.294 12.4235 15.2143 13.4313 15.2143 14.2008C15.2143 15.1082 15.3196 16.2681 15.4705 17.0692C15.5046 17.2472 15.5217 17.4052 15.5075 17.4166C15.4961 17.4281 15.3566 17.543 15.2 17.6693C14.6648 18.1 14.0528 18.7632 13.6314 19.3691C12.823 20.5262 12.2991 21.8412 12.0799 23.2653C11.9945 23.8281 11.9718 24.9651 12.0401 25.5279C12.191 26.8257 12.5781 27.9225 13.2414 28.9274L13.4578 29.2519L13.3952 29.3581C12.9511 30.1104 12.5724 31.1986 12.3959 32.2437C12.2564 33.0706 12.2394 33.2917 12.2394 34.4C12.2394 35.517 12.2536 35.738 12.3845 36.5104C12.5411 37.4349 12.86 38.414 13.2158 39.0658C13.3325 39.2783 13.6172 39.7204 13.6514 39.7434C13.6628 39.7491 13.6286 39.8554 13.5745 39.9788C13.1646 40.8833 12.8144 42.0863 12.6692 43.0999C12.5667 43.7947 12.5525 44.0187 12.5525 44.7509C12.5525 45.684 12.6037 46.1377 12.7973 46.8813L12.8258 46.9904H14.0442H15.2655L15.1858 46.8382C14.6933 45.9194 14.6478 44.2139 15.0719 42.5113C15.2655 41.7245 15.4847 41.1475 15.8946 40.3521L16.1395 39.8697V39.574C16.1395 39.2984 16.1338 39.2668 16.0455 39.0859C15.9772 38.9481 15.8861 38.8304 15.7238 38.6696C15.4477 38.3997 15.2484 38.1154 15.089 37.7651C14.3887 36.2319 14.252 33.955 14.7445 32.014C14.9495 31.2043 15.2883 30.4837 15.6441 30.0903C15.8861 29.8204 16.0114 29.5189 16.0114 29.2059C16.0114 28.8815 15.8975 28.6145 15.6413 28.336C14.9068 27.5435 14.4542 26.5787 14.2919 25.4561C14.0613 23.8568 14.4798 22.114 15.4306 20.7329C16.3615 19.3777 17.6682 18.5077 19.1286 18.2751C19.456 18.2206 20.0681 18.2292 20.4097 18.2924C20.7826 18.3584 21.016 18.3383 21.2552 18.2234C21.5512 18.0828 21.6993 17.9076 21.8729 17.5056C22.0266 17.1467 22.1462 16.9515 22.4679 16.5467C22.8551 16.0614 23.228 15.7312 23.8258 15.3321C24.5091 14.8813 25.2862 14.554 26.0606 14.3961C26.3424 14.3386 26.4733 14.33 27 14.33C27.5267 14.33 27.6576 14.3386 27.9394 14.3961C29.0753 14.6287 30.2027 15.2201 31.1022 16.0585C31.2958 16.2394 31.7598 16.8194 31.9079 17.0606C31.9648 17.1553 32.0645 17.3563 32.1271 17.5056C32.3007 17.9076 32.4488 18.0828 32.7448 18.2234C32.9754 18.3354 33.2174 18.3584 33.5761 18.2981C34.1426 18.2005 34.5782 18.2091 35.1333 18.3239C37.0236 18.7087 38.669 20.2793 39.3978 22.3839C40.0326 24.2301 39.8533 26.1624 38.9081 27.6382C38.7487 27.8881 38.5893 28.089 38.3587 28.336C37.8605 28.8729 37.8605 29.539 38.3559 30.0903C39.1701 30.989 39.6796 33.1999 39.5259 35.1494C39.4234 36.4357 39.096 37.5871 38.6462 38.2389C38.5665 38.3537 38.4014 38.5489 38.2761 38.6696C38.1139 38.8304 38.0228 38.9481 37.9545 39.0859C37.8662 39.2668 37.8605 39.2984 37.8605 39.574V39.8697L38.1053 40.3521C38.5153 41.1475 38.7345 41.7245 38.9281 42.5113C39.3466 44.191 39.3096 45.862 38.8313 46.8124C38.7914 46.8928 38.7573 46.9675 38.7573 46.9761C38.7573 46.9847 39.301 46.9904 39.9672 46.9904H41.1742L41.2055 46.8669C41.2226 46.8009 41.2511 46.7004 41.2653 46.643C41.2966 46.5167 41.3592 46.1434 41.4105 45.7845C41.4589 45.4227 41.4589 44.0904 41.4105 43.6885C41.2283 42.2299 40.9237 41.0728 40.4255 39.9788C40.3714 39.8554 40.3372 39.7491 40.3486 39.7434C40.3629 39.7348 40.4426 39.62 40.528 39.4907C41.1486 38.5432 41.53 37.3517 41.7236 35.7782C41.7749 35.3446 41.7749 33.4812 41.7236 33.0649C41.587 31.9911 41.4219 31.2617 41.1486 30.5238C41.0347 30.2166 40.7329 29.5677 40.6049 29.3581L40.5422 29.2519L40.7586 28.9274C41.4219 27.9225 41.809 26.8257 41.9599 25.5279C42.0282 24.9651 42.0055 23.8281 41.9201 23.2653C41.698 21.8383 41.177 20.529 40.3686 19.3691C39.9472 18.7632 39.3352 18.1 38.8 17.6693C38.6434 17.543 38.5039 17.4281 38.4925 17.4166C38.4783 17.4052 38.4954 17.2472 38.5295 17.0692C38.874 15.2574 38.8626 12.9978 38.5011 11.232C38.1879 9.69298 37.6186 8.46983 36.8841 7.7635C36.2976 7.20074 35.6998 6.95956 34.9824 7.0055C33.337 7.10312 32.0104 9.01249 31.4865 12.0215C31.4011 12.5068 31.3272 13.0753 31.3272 13.2304C31.3272 13.2906 31.3157 13.3394 31.3015 13.3394C31.2873 13.3394 31.1763 13.282 31.0567 13.2103C29.787 12.4522 28.375 12.0474 27 12.0474C25.625 12.0474 24.213 12.4522 22.9433 13.2103C22.8237 13.282 22.7127 13.3394 22.6985 13.3394C22.6843 13.3394 22.6728 13.2906 22.6728 13.2304C22.6728 13.0696 22.596 12.4838 22.5135 12.0215C22.038 9.31972 20.9477 7.53093 19.4987 7.08015C19.2994 7.01985 18.7329 6.97965 18.5308 7.01124ZM19.0148 9.34843C19.4247 9.67575 19.8802 10.6118 20.1421 11.6598C20.1905 11.8493 20.2417 12.0675 20.2559 12.1479C20.2673 12.2254 20.2986 12.4006 20.3243 12.5355C20.4353 13.1442 20.4865 13.8017 20.4922 14.6028L20.4951 15.3924L20.2986 15.6852L20.1022 15.981H19.6439C19.1087 15.981 18.5763 16.0499 18.0667 16.1877C17.8846 16.2337 17.708 16.2796 17.6739 16.2882C17.6198 16.2997 17.6113 16.2825 17.58 16.047C17.412 14.7693 17.4205 13.3538 17.6056 12.1766C17.8105 10.8644 18.2888 9.67575 18.7557 9.32546C18.8667 9.24219 18.8866 9.24506 19.0148 9.34843ZM35.2472 9.32833C35.529 9.53793 35.8393 10.095 36.0699 10.807C36.5339 12.2311 36.6649 14.1865 36.42 16.047C36.3887 16.2825 36.3802 16.2997 36.3261 16.2882C36.292 16.2796 36.1155 16.2337 35.9333 16.1877C35.4237 16.0499 34.8913 15.981 34.3561 15.981H33.8978L33.7014 15.6852L33.5049 15.3924L33.5078 14.6028C33.5135 13.4888 33.616 12.6188 33.8608 11.6512C34.1198 10.6118 34.5782 9.67575 34.9853 9.34843C35.1134 9.24506 35.1333 9.24219 35.2472 9.32833Z" fill="white"/>
<path d="M26.5588 23.7788C25.941 23.8392 25.7731 23.8621 25.477 23.9225C24.9959 24.0229 24.3525 24.2469 23.9055 24.468C22.3512 25.2346 21.2808 26.5123 20.9534 27.991C20.8879 28.2839 20.8794 28.3815 20.8794 28.8753C20.8794 29.3634 20.8879 29.4697 20.9506 29.7482C21.3861 31.6805 23.1511 33.1076 25.4343 33.3688C25.9296 33.4234 28.0704 33.4234 28.5658 33.3688C30.3991 33.1592 31.9762 32.1572 32.6851 30.7502C32.8729 30.3741 32.9641 30.13 33.0495 29.7482C33.1121 29.4697 33.1206 29.3634 33.1206 28.8753C33.1206 28.3815 33.1121 28.2839 33.0466 27.991C32.5712 25.8433 30.5044 24.1521 27.9708 23.8306C27.6405 23.7904 26.7751 23.7559 26.5588 23.7788ZM27.6235 25.3408C28.469 25.4327 29.3202 25.7371 30.0034 26.1965C30.3706 26.4434 30.8888 26.9602 31.1108 27.299C31.3841 27.7182 31.5406 28.146 31.6118 28.6657C31.6431 28.904 31.6261 29.0849 31.5406 29.4697C31.4068 30.0439 30.9912 30.644 30.4304 31.0632C30.1685 31.2556 29.6248 31.5341 29.2917 31.6432C28.6597 31.847 28.2469 31.8844 26.7723 31.8729C25.8101 31.8643 25.6392 31.8557 25.3631 31.804C24.4208 31.626 23.675 31.2469 23.1341 30.6699C22.6956 30.2047 22.4964 29.7798 22.3882 29.0936C22.3398 28.7748 22.4309 28.2465 22.616 27.8015C22.8409 27.2588 23.4216 26.5841 23.9967 26.1965C24.6628 25.7485 25.5396 25.4299 26.3452 25.3437C26.6556 25.3092 27.3131 25.3092 27.6235 25.3408Z" fill="white"/>
<path d="M25.9123 27.4373C25.696 27.555 25.5451 27.8536 25.5907 28.0747C25.6419 28.313 25.8497 28.5542 26.1742 28.7523C26.3479 28.8586 26.3593 28.8729 26.3678 28.9791C26.3735 29.0423 26.3507 29.2232 26.3194 29.384C26.2853 29.5419 26.2596 29.7085 26.2596 29.7544C26.2625 29.8779 26.3764 30.0789 26.4959 30.1765C26.6013 30.2626 26.6212 30.2655 26.9173 30.2741C27.1877 30.2827 27.2447 30.2769 27.3528 30.2253C27.6318 30.0874 27.703 29.8348 27.6005 29.3495C27.5151 28.9447 27.5322 28.8815 27.7457 28.7581C27.9706 28.626 28.2097 28.3934 28.2809 28.2355C28.4175 27.934 28.2922 27.5923 27.9905 27.4344C27.9165 27.3971 27.8254 27.3799 27.6916 27.3799C27.4838 27.3799 27.35 27.4287 27.1051 27.5866L26.9656 27.6756L26.8774 27.6211C26.5159 27.4057 26.4504 27.3799 26.2312 27.3827C26.0746 27.3827 25.9892 27.3971 25.9123 27.4373Z" fill="white"/>
<path d="M19.0003 24.1039C18.4964 24.2647 18.1207 24.638 17.9271 25.1692C17.8332 25.4219 17.7876 25.821 17.8274 26.0363C17.9214 26.5503 18.3399 27.0183 18.8153 27.1475C19.4131 27.3054 19.8601 27.202 20.2558 26.8058C20.4863 26.579 20.6116 26.3808 20.7369 26.0593C20.828 25.8325 20.8337 25.7923 20.8337 25.4707L20.8365 25.1261L20.717 24.8792C20.5262 24.4887 20.1817 24.1987 19.7832 24.0925C19.5583 24.035 19.1968 24.0379 19.0003 24.1039Z" fill="white"/>
<path d="M34.205 24.0948C33.815 24.2011 33.4677 24.4939 33.2826 24.8787L33.1631 25.1256L33.1659 25.4701C33.1659 25.7917 33.1716 25.8319 33.2627 26.0587C33.388 26.3803 33.5132 26.5784 33.7438 26.8053C34.1395 27.2015 34.5865 27.3048 35.1843 27.147C35.5288 27.0551 35.8732 26.7622 36.0383 26.4205C36.1807 26.1305 36.2148 25.9209 36.1693 25.5907C36.064 24.8356 35.6255 24.2872 34.9736 24.0948C34.7829 24.0374 34.4128 24.0374 34.205 24.0948Z" fill="white"/>
</g>
<defs>
<linearGradient id="paint0_linear_387_1923" x1="-1.11169e-06" y1="54.99" x2="55" y2="-0.00999979" gradientUnits="userSpaceOnUse">
<stop stop-color="#203246"/>
<stop offset="1" stop-color="#15212E"/>
</linearGradient>
<clipPath id="clip0_387_1923">
<rect width="30" height="40" fill="white" transform="translate(12 7)"/>
</clipPath>
</defs>
</svg>
