<svg width="64" height="64" viewBox="0 0 64 64" fill="none" xmlns="http://www.w3.org/2000/svg">
<path d="M44.5 4.5H19.5C11.2157 4.5 4.5 11.2157 4.5 19.5V44.5C4.5 52.7843 11.2157 59.5 19.5 59.5H44.5C52.7843 59.5 59.5 52.7843 59.5 44.5V19.5C59.5 11.2157 52.7843 4.5 44.5 4.5Z" fill="white"/>
<g clip-path="url(#clip0_387_1963)">
<path d="M23.0308 11.5112C22.6607 11.5715 22.2166 11.7668 21.9034 12.008C20.9555 12.7344 20.221 14.2762 19.9107 16.1971C19.794 16.9235 19.7143 17.9313 19.7143 18.7008C19.7143 19.6082 19.8196 20.7681 19.9705 21.5692C20.0046 21.7472 20.0217 21.9052 20.0075 21.9166C19.9961 21.9281 19.8566 22.043 19.7 22.1693C19.1648 22.6 18.5528 23.2632 18.1314 23.8691C17.323 25.0262 16.7991 26.3412 16.5799 27.7653C16.4945 28.3281 16.4718 29.4651 16.5401 30.0279C16.691 31.3257 17.0781 32.4225 17.7414 33.4275L17.9578 33.7519L17.8952 33.8581C17.4511 34.6104 17.0724 35.6986 16.8959 36.7437C16.7564 37.5706 16.7394 37.7917 16.7394 38.9C16.7394 40.017 16.7536 40.238 16.8845 41.0104C17.0411 41.9349 17.36 42.914 17.7158 43.5658C17.8325 43.7783 18.1172 44.2204 18.1514 44.2434C18.1628 44.2491 18.1286 44.3554 18.0745 44.4788C17.6646 45.3833 17.3144 46.5863 17.1692 47.5999C17.0667 48.2947 17.0525 48.5187 17.0525 49.2509C17.0525 50.184 17.1037 50.6377 17.2973 51.3813L17.3258 51.4904H18.5442H19.7655L19.6858 51.3382C19.1933 50.4194 19.1478 48.7139 19.5719 47.0113C19.7655 46.2245 19.9847 45.6475 20.3946 44.8521L20.6395 44.3697V44.074C20.6395 43.7984 20.6338 43.7668 20.5455 43.5859C20.4772 43.4481 20.3861 43.3304 20.2238 43.1696C19.9477 42.8997 19.7484 42.6154 19.589 42.2651C18.8887 40.7319 18.752 38.455 19.2445 36.514C19.4495 35.7043 19.7883 34.9837 20.1441 34.5903C20.3861 34.3204 20.5114 34.0189 20.5114 33.706C20.5114 33.3815 20.3975 33.1145 20.1413 32.836C19.4068 32.0435 18.9542 31.0787 18.7919 29.9561C18.5613 28.3568 18.9798 26.614 19.9306 25.2329C20.8615 23.8777 22.1682 23.0077 23.6286 22.7751C23.956 22.7206 24.5681 22.7292 24.9097 22.7924C25.2826 22.8584 25.516 22.8383 25.7552 22.7234C26.0512 22.5828 26.1993 22.4076 26.3729 22.0056C26.5266 21.6467 26.6462 21.4515 26.9679 21.0467C27.3551 20.5614 27.728 20.2312 28.3258 19.8321C29.0091 19.3813 29.7862 19.054 30.5606 18.8961C30.8424 18.8386 30.9733 18.83 31.5 18.83C32.0267 18.83 32.1576 18.8386 32.4394 18.8961C33.5753 19.1287 34.7027 19.7201 35.6022 20.5585C35.7958 20.7394 36.2598 21.3194 36.4079 21.5606C36.4648 21.6553 36.5645 21.8563 36.6271 22.0056C36.8007 22.4076 36.9488 22.5828 37.2448 22.7234C37.4754 22.8354 37.7174 22.8584 38.0761 22.7981C38.6426 22.7005 39.0782 22.7091 39.6333 22.8239C41.5236 23.2087 43.169 24.7793 43.8978 26.8839C44.5326 28.7301 44.3533 30.6624 43.4081 32.1382C43.2487 32.3881 43.0893 32.589 42.8587 32.836C42.3605 33.3729 42.3605 34.039 42.8559 34.5903C43.6701 35.489 44.1796 37.6999 44.0259 39.6494C43.9234 40.9357 43.596 42.0871 43.1462 42.7389C43.0665 42.8537 42.9014 43.049 42.7761 43.1696C42.6139 43.3304 42.5228 43.4481 42.4545 43.5859C42.3662 43.7668 42.3605 43.7984 42.3605 44.074V44.3697L42.6053 44.8521C43.0153 45.6475 43.2345 46.2245 43.4281 47.0113C43.8466 48.691 43.8096 50.362 43.3313 51.3124C43.2914 51.3928 43.2573 51.4675 43.2573 51.4761C43.2573 51.4847 43.801 51.4904 44.4672 51.4904H45.6742L45.7055 51.3669C45.7226 51.3009 45.7511 51.2004 45.7653 51.143C45.7966 51.0167 45.8592 50.6434 45.9105 50.2845C45.9589 49.9227 45.9589 48.5905 45.9105 48.1885C45.7283 46.7299 45.4237 45.5728 44.9255 44.4788C44.8714 44.3554 44.8372 44.2491 44.8486 44.2434C44.8629 44.2348 44.9426 44.12 45.028 43.9907C45.6486 43.0432 46.03 41.8517 46.2236 40.2782C46.2749 39.8446 46.2749 37.9812 46.2236 37.5649C46.087 36.4911 45.9219 35.7617 45.6486 35.0238C45.5347 34.7166 45.2329 34.0677 45.1049 33.8581L45.0422 33.7519L45.2586 33.4275C45.9219 32.4225 46.309 31.3257 46.4599 30.0279C46.5282 29.4651 46.5055 28.3281 46.4201 27.7653C46.198 26.3383 45.677 25.029 44.8686 23.8691C44.4472 23.2632 43.8352 22.6 43.3 22.1693C43.1434 22.043 43.0039 21.9281 42.9925 21.9166C42.9783 21.9052 42.9954 21.7472 43.0295 21.5692C43.374 19.7574 43.3626 17.4978 43.0011 15.732C42.6879 14.193 42.1186 12.9698 41.3841 12.2635C40.7976 11.7007 40.1998 11.4596 39.4824 11.5055C37.837 11.6031 36.5104 13.5125 35.9865 16.5215C35.9011 17.0068 35.8272 17.5753 35.8272 17.7304C35.8272 17.7906 35.8157 17.8394 35.8015 17.8394C35.7873 17.8394 35.6763 17.782 35.5567 17.7103C34.287 16.9522 32.875 16.5474 31.5 16.5474C30.125 16.5474 28.713 16.9522 27.4433 17.7103C27.3237 17.782 27.2127 17.8394 27.1985 17.8394C27.1843 17.8394 27.1728 17.7906 27.1728 17.7304C27.1728 17.5696 27.096 16.9838 27.0135 16.5215C26.538 13.8197 25.4477 12.0309 23.9987 11.5801C23.7994 11.5199 23.2329 11.4797 23.0308 11.5112ZM23.5148 13.8484C23.9247 14.1758 24.3802 15.1118 24.6421 16.1598C24.6905 16.3493 24.7417 16.5675 24.7559 16.6479C24.7673 16.7254 24.7986 16.9006 24.8243 17.0355C24.9353 17.6442 24.9865 18.3017 24.9922 19.1028L24.9951 19.8924L24.7986 20.1852L24.6022 20.481H24.1439C23.6087 20.481 23.0763 20.5499 22.5667 20.6877C22.3846 20.7337 22.208 20.7796 22.1739 20.7882C22.1198 20.7997 22.1113 20.7825 22.08 20.547C21.912 19.2693 21.9205 17.8538 22.1056 16.6766C22.3105 15.3644 22.7888 14.1758 23.2557 13.8255C23.3667 13.7422 23.3866 13.7451 23.5148 13.8484ZM39.7472 13.8283C40.029 14.0379 40.3393 14.595 40.5699 15.307C41.0339 16.7311 41.1649 18.6865 40.92 20.547C40.8887 20.7825 40.8802 20.7997 40.8261 20.7882C40.792 20.7796 40.6155 20.7337 40.4333 20.6877C39.9237 20.5499 39.3913 20.481 38.8561 20.481H38.3978L38.2014 20.1852L38.0049 19.8924L38.0078 19.1028C38.0135 17.9888 38.116 17.1188 38.3608 16.1512C38.6198 15.1118 39.0782 14.1758 39.4853 13.8484C39.6134 13.7451 39.6333 13.7422 39.7472 13.8283Z" fill="#15212E"/>
<path d="M31.0588 28.2788C30.441 28.3392 30.2731 28.3621 29.977 28.4225C29.4959 28.5229 28.8525 28.7469 28.4055 28.968C26.8512 29.7346 25.7808 31.0123 25.4534 32.491C25.3879 32.7839 25.3794 32.8815 25.3794 33.3753C25.3794 33.8634 25.3879 33.9697 25.4506 34.2482C25.8861 36.1805 27.6511 37.6076 29.9343 37.8688C30.4296 37.9234 32.5704 37.9234 33.0658 37.8688C34.8991 37.6592 36.4762 36.6572 37.1851 35.2502C37.3729 34.8741 37.4641 34.63 37.5495 34.2482C37.6121 33.9697 37.6206 33.8634 37.6206 33.3753C37.6206 32.8815 37.6121 32.7839 37.5466 32.491C37.0712 30.3433 35.0044 28.6521 32.4708 28.3306C32.1405 28.2904 31.2751 28.2559 31.0588 28.2788ZM32.1235 29.8408C32.969 29.9327 33.8202 30.2371 34.5034 30.6965C34.8706 30.9434 35.3888 31.4602 35.6108 31.799C35.8841 32.2182 36.0406 32.646 36.1118 33.1657C36.1431 33.404 36.1261 33.5849 36.0406 33.9697C35.9068 34.5439 35.4912 35.144 34.9304 35.5632C34.6685 35.7556 34.1248 36.0341 33.7917 36.1432C33.1597 36.347 32.7469 36.3844 31.2723 36.3729C30.3101 36.3643 30.1392 36.3557 29.8631 36.304C28.9208 36.126 28.175 35.7469 27.6341 35.1699C27.1956 34.7047 26.9964 34.2798 26.8882 33.5936C26.8398 33.2748 26.9309 32.7465 27.116 32.3015C27.3409 31.7588 27.9216 31.0841 28.4967 30.6965C29.1628 30.2485 30.0396 29.9299 30.8452 29.8437C31.1556 29.8092 31.8131 29.8092 32.1235 29.8408Z" fill="#15212E"/>
<path d="M30.4126 31.9373C30.1962 32.055 30.0453 32.3536 30.0909 32.5747C30.1421 32.813 30.3499 33.0542 30.6745 33.2523C30.8481 33.3586 30.8595 33.3729 30.8681 33.4791C30.8737 33.5423 30.851 33.7232 30.8197 33.884C30.7855 34.0419 30.7599 34.2085 30.7599 34.2544C30.7627 34.3779 30.8766 34.5789 30.9962 34.6765C31.1015 34.7626 31.1214 34.7655 31.4175 34.7741C31.688 34.7827 31.7449 34.7769 31.8531 34.7253C32.1321 34.5874 32.2032 34.3348 32.1007 33.8495C32.0153 33.4447 32.0324 33.3815 32.2459 33.2581C32.4708 33.126 32.71 32.8934 32.7811 32.7355C32.9178 32.434 32.7925 32.0923 32.4907 31.9344C32.4167 31.8971 32.3256 31.8799 32.1918 31.8799C31.984 31.8799 31.8502 31.9287 31.6054 32.0866L31.4659 32.1756L31.3777 32.1211C31.0161 31.9057 30.9506 31.8799 30.7314 31.8827C30.5749 31.8827 30.4894 31.8971 30.4126 31.9373Z" fill="#15212E"/>
<path d="M23.5006 28.6039C22.9967 28.7647 22.6209 29.138 22.4273 29.6692C22.3334 29.9219 22.2878 30.321 22.3277 30.5363C22.4216 31.0503 22.8401 31.5183 23.3155 31.6475C23.9134 31.8054 24.3603 31.702 24.756 31.3058C24.9866 31.079 25.1119 30.8808 25.2371 30.5593C25.3282 30.3325 25.3339 30.2923 25.3339 29.9707L25.3367 29.6261L25.2172 29.3792C25.0264 28.9887 24.682 28.6987 24.2834 28.5925C24.0585 28.535 23.697 28.5379 23.5006 28.6039Z" fill="#15212E"/>
<path d="M38.7052 28.5948C38.3152 28.7011 37.9679 28.9939 37.7829 29.3787L37.6633 29.6256L37.6662 29.9701C37.6662 30.2917 37.6719 30.3319 37.7629 30.5587C37.8882 30.8803 38.0135 31.0784 38.2441 31.3053C38.6398 31.7015 39.0867 31.8048 39.6846 31.647C40.029 31.5551 40.3735 31.2622 40.5386 30.9205C40.6809 30.6305 40.7151 30.4209 40.6696 30.0907C40.5642 29.3356 40.1258 28.7872 39.4739 28.5948C39.2831 28.5374 38.9131 28.5374 38.7052 28.5948Z" fill="#15212E"/>
</g>
<defs>
<clipPath id="clip0_387_1963">
<rect width="30" height="40" fill="white" transform="translate(16.5 11.5)"/>
</clipPath>
</defs>
</svg>
