<svg width="64" height="64" viewBox="0 0 64 64" fill="none" xmlns="http://www.w3.org/2000/svg">
<path d="M44.5 4.5H19.5C11.2157 4.5 4.5 11.2157 4.5 19.5V44.5C4.5 52.7843 11.2157 59.5 19.5 59.5H44.5C52.7843 59.5 59.5 52.7843 59.5 44.5V19.5C59.5 11.2157 52.7843 4.5 44.5 4.5Z" fill="#16AC86"/>
<path d="M51.4234 32.529C50.9417 30.7501 49.9783 29.1848 48.6569 27.9528C49.7364 25.4444 49.5737 22.5652 48.1933 20.1999C46.8691 17.9335 44.7319 16.3117 42.1748 15.6341C40.3746 15.1578 38.5201 15.1992 36.778 15.7169C35.1187 13.5351 32.535 12.2344 29.76 12.2344C25.0895 12.2344 21.1721 15.4496 20.1297 19.7557C20.1201 19.7566 20.1116 19.7528 20.1021 19.7538C17.3394 20.0926 14.9575 21.6541 13.5667 24.0354C12.2425 26.3019 11.8912 28.9429 12.5766 31.471C13.0593 33.2509 14.0227 34.818 15.3459 36.0501C14.2664 38.5594 14.4225 41.4282 15.8067 43.8001C17.1309 46.0665 19.2681 47.6883 21.8251 48.3659C22.6781 48.5918 23.5454 48.7038 24.406 48.7038C25.3608 48.7038 26.3052 48.5523 27.221 48.2803C28.8794 50.4658 31.4526 51.7656 34.24 51.7656C38.9152 51.7656 42.8345 48.5448 43.8741 44.233C46.6158 43.9036 49.0444 42.345 50.4343 39.9646C51.7575 37.6981 52.1088 35.0571 51.4234 32.529ZM41.6817 17.4516C43.7485 17.9984 45.4744 19.3095 46.5435 21.1402C47.5421 22.8504 47.7268 24.9051 47.0852 26.7565C46.9909 26.6981 46.9014 26.6332 46.8053 26.5776L38.0765 21.5948C37.7795 21.4263 37.412 21.4282 37.115 21.6005L27.4066 27.2864L27.3571 22.9502L35.6042 18.2431C37.4577 17.1852 39.6159 16.9057 41.6817 17.4516ZM36.5095 29.3599L36.5686 34.5404L32.06 37.1805L27.4914 34.6401L27.4324 29.4596L31.941 26.8195L36.5095 29.3599ZM21.7518 22.0344C21.7518 17.668 25.3446 14.1168 29.76 14.1168C31.7677 14.1168 33.6555 14.979 34.9559 16.4586C34.8559 16.5113 34.7522 16.5555 34.6532 16.612L25.9235 21.5948C25.6264 21.7652 25.4437 22.0814 25.4475 22.4203L25.5741 33.5747L21.7518 31.4494V22.0344ZM14.4149 30.9844C13.8618 28.942 14.1464 26.8073 15.2155 24.9766C16.2246 23.2485 17.903 22.0833 19.865 21.7068C19.8612 21.816 19.8479 21.9233 19.8479 22.0344V32C19.8479 32.3398 20.0335 32.6532 20.3334 32.8207L30.1665 38.2892L26.3928 40.4992L18.1467 35.7912C16.2941 34.7342 14.9689 33.0278 14.4149 30.9844ZM22.3183 46.5484C20.2515 46.0016 18.5256 44.6905 17.4565 42.8598C16.454 41.143 16.2674 39.094 16.911 37.2407C17.0071 37.3 17.0976 37.3659 17.1956 37.4224L25.9244 42.4052C26.071 42.489 26.2357 42.5313 26.4004 42.5313C26.5689 42.5313 26.7364 42.4871 26.8859 42.3995L36.5943 36.7136L36.6438 41.0498L28.3967 45.7569C26.5441 46.8157 24.385 47.0972 22.3183 46.5484ZM42.2481 41.9656C42.2481 46.332 38.6563 49.8832 34.24 49.8832C32.2227 49.8832 30.3426 49.0182 29.0431 47.5358C29.1431 47.4831 29.2487 47.4435 29.3477 47.3871L38.0775 42.4042C38.3745 42.2339 38.5573 41.9176 38.5535 41.5788L38.4259 30.4253L42.2481 32.5506V41.9656ZM48.7845 39.0234C47.7792 40.7458 46.0808 41.928 44.135 42.3017C44.1388 42.1887 44.1521 42.0786 44.1521 41.9656V32C44.1521 31.6602 43.9665 31.3468 43.6666 31.1793L33.8335 25.7108L37.6072 23.5008L45.8533 28.2088C47.7059 29.2658 49.031 30.9731 49.5851 33.0156C50.1382 35.058 49.8535 37.1927 48.7845 39.0234Z" fill="white"/>
</svg>
