<svg width="55" height="55" viewBox="0 0 55 55" fill="none" xmlns="http://www.w3.org/2000/svg">
<path d="M40 0H15C6.71573 0 0 6.71573 0 15V40C0 48.2843 6.71573 55 15 55H40C48.2843 55 55 48.2843 55 40V15C55 6.71573 48.2843 0 40 0Z" fill="#16AC86"/>
<path d="M46.587 27.5394C46.1012 25.725 45.1297 24.1285 43.7972 22.8718C44.8859 20.3134 44.7217 17.3768 43.3297 14.9643C41.9943 12.6526 39.8391 10.9986 37.2606 10.3074C35.4452 9.8216 33.5751 9.86384 31.8183 10.3918C30.1451 8.16656 27.5396 6.83984 24.7412 6.83984C20.0315 6.83984 16.0811 10.1192 15.0299 14.5112C15.0203 14.5122 15.0116 14.5083 15.002 14.5093C12.2161 14.8549 9.81418 16.4475 8.41162 18.8763C7.07626 21.188 6.72202 23.8818 7.41322 26.4603C7.89994 28.2757 8.87146 29.8741 10.2059 31.1307C9.11722 33.6901 9.27466 36.6162 10.6705 39.0354C12.0059 41.347 14.1611 43.0011 16.7396 43.6923C17.5998 43.9227 18.4743 44.037 19.3422 44.037C20.3051 44.037 21.2574 43.8824 22.1809 43.605C23.8532 45.8341 26.4481 47.1598 29.259 47.1598C33.9735 47.1598 37.9259 43.8747 38.9742 39.477C41.739 39.141 44.1879 37.5512 45.5895 35.1234C46.9239 32.8117 47.2782 30.1179 46.587 27.5394ZM36.7633 12.1611C38.8475 12.7189 40.5879 14.0562 41.666 15.9234C42.6731 17.6677 42.8593 19.7634 42.2123 21.6517C42.1172 21.5922 42.027 21.5259 41.93 21.4693L33.1278 16.387C32.8283 16.2152 32.4577 16.2171 32.1582 16.3928L22.3681 22.1922L22.3182 17.7694L30.6347 12.9685C32.5038 11.8894 34.6801 11.6043 36.7633 12.1611ZM31.5476 24.307L31.6071 29.5909L27.0606 32.2837L22.4535 29.6926L22.394 24.4088L26.9406 21.716L31.5476 24.307ZM16.6657 16.8354C16.6657 12.3819 20.2887 8.75984 24.7412 8.75984C26.7659 8.75984 28.6695 9.6392 29.9809 11.1483C29.8801 11.2021 29.7755 11.2472 29.6756 11.3048L20.8724 16.387C20.5729 16.5608 20.3886 16.8834 20.3924 17.229L20.5201 28.6059L16.6657 26.4382V16.8354ZM9.26698 25.964C8.70922 23.8808 8.99626 21.7035 10.0743 19.8363C11.0919 18.0738 12.7844 16.8853 14.763 16.5013C14.7591 16.6126 14.7457 16.7221 14.7457 16.8354V26.9998C14.7457 27.3464 14.9329 27.6661 15.2353 27.837L25.1511 33.4146L21.3457 35.6686L13.0302 30.8667C11.162 29.7886 9.8257 28.0482 9.26698 25.964ZM17.2369 41.8386C15.1527 41.2808 13.4123 39.9435 12.3342 38.0763C11.3233 36.3253 11.1351 34.2354 11.7841 32.3451C11.8811 32.4056 11.9723 32.4728 12.0711 32.5304L20.8734 37.6126C21.0212 37.6981 21.1873 37.7413 21.3534 37.7413C21.5233 37.7413 21.6923 37.6962 21.843 37.6069L31.6331 31.8075L31.683 36.2302L23.3665 41.0312C21.4983 42.1112 19.3211 42.3982 17.2369 41.8386ZM37.3345 37.1643C37.3345 41.6178 33.7124 45.2398 29.259 45.2398C27.2247 45.2398 25.3287 44.3576 24.0183 42.8456C24.1191 42.7918 24.2257 42.7515 24.3255 42.6939L33.1287 37.6117C33.4283 37.4379 33.6126 37.1154 33.6087 36.7698L33.4801 25.3938L37.3345 27.5614V37.1643ZM43.9259 34.1634C42.9121 35.9202 41.1995 37.1259 39.2372 37.507C39.2411 37.3918 39.2545 37.2795 39.2545 37.1643V26.9998C39.2545 26.6533 39.0673 26.3336 38.7649 26.1627L28.8491 20.5851L32.6545 18.331L40.97 23.133C42.8382 24.211 44.1745 25.9525 44.7332 28.0357C45.291 30.1189 45.0039 32.2962 43.9259 34.1634Z" fill="white"/>
</svg>
