<svg width="64" height="64" viewBox="0 0 64 64" fill="none" xmlns="http://www.w3.org/2000/svg">
<g opacity="0.3" filter="url(#filter0_f_388_573)">
<path d="M44.5 4.5H19.5C11.2157 4.5 4.5 11.2157 4.5 19.5V44.5C4.5 52.7843 11.2157 59.5 19.5 59.5H44.5C52.7843 59.5 59.5 52.7843 59.5 44.5V19.5C59.5 11.2157 52.7843 4.5 44.5 4.5Z" fill="#141414"/>
</g>
<path d="M44.5 4.5H19.5C11.2157 4.5 4.5 11.2157 4.5 19.5V44.5C4.5 52.7843 11.2157 59.5 19.5 59.5H44.5C52.7843 59.5 59.5 52.7843 59.5 44.5V19.5C59.5 11.2157 52.7843 4.5 44.5 4.5Z" fill="url(#paint0_linear_388_573)"/>
<path opacity="0.1" d="M16.5 18C16.5 18 14.53 19.96 14.5 20C14.5 21.1 15.395 22 16.5 22C17.605 22 18.5 21.105 18.5 20C18.5 18.895 17.605 18 16.5 18ZM20 19C19.852 19.154 18.5 20.5 18.5 20.5C18.5 21.328 19.172 22 20 22C20.828 22 21.5 21.328 21.5 20.5C21.5 19.672 20.828 19 20 19ZM22.5 20C21.948 20 21.5 20.672 21.5 21.5C21.5 22.328 21.948 23 22.5 23C23.052 23 23.5 22.328 23.5 21.5C23.5 20.672 23.052 20 22.5 20ZM24.5 21C23.948 21 23.5 21.672 23.5 22.5C23.5 23.328 23.948 24 24.5 24C25.052 24 25.5 23.328 25.5 22.5C25.5 21.672 25.052 21 24.5 21ZM26.5 22C25.948 22 25.5 22.672 25.5 23.5C25.5 24.328 25.948 25 26.5 25C27.052 25 27.5 24.328 27.5 23.5C27.5 22.672 27.052 22 26.5 22ZM17.5 23C17.5 23 14.27 25.58 14.5 25.5C14.5 29.5 18.5 29 18.5 32C18.5 35 15.5 36 15.5 39.5C15.5 41 16.5 42 18.5 42C22.5 42 26.5 34.5 26.5 29.5C26.5 25 20.5 23 17.5 23ZM27.5 39V41.5C27.5 41.777 27.723 42 28 42H37C37.277 42 37.5 41.777 37.5 41.5V39.5C37.5 39.223 37.277 39 37 39H27.5Z" fill="black"/>
<path d="M15.5 17C14.4 17 13.5 17.895 13.5 19C13.5 20.105 14.395 21 15.5 21C16.605 21 17.5 20.105 17.5 19C17.5 17.895 16.605 17 15.5 17ZM19 18C18.172 18 17.5 18.672 17.5 19.5C17.5 20.328 18.172 21 19 21C19.828 21 20.5 20.328 20.5 19.5C20.5 18.672 19.828 18 19 18ZM21.5 19C20.948 19 20.5 19.672 20.5 20.5C20.5 21.328 20.948 22 21.5 22C22.052 22 22.5 21.328 22.5 20.5C22.5 19.672 22.052 19 21.5 19ZM23.5 20C22.948 20 22.5 20.672 22.5 21.5C22.5 22.328 22.948 23 23.5 23C24.052 23 24.5 22.328 24.5 21.5C24.5 20.672 24.052 20 23.5 20ZM25.5 21C24.948 21 24.5 21.672 24.5 22.5C24.5 23.328 24.948 24 25.5 24C26.052 24 26.5 23.328 26.5 22.5C26.5 21.672 26.052 21 25.5 21ZM16.5 22C14.5 22 13.5 23 13.5 24.5C13.5 28.5 17.5 28 17.5 31C17.5 34 14.5 35 14.5 38.5C14.5 40 15.5 41 17.5 41C21.5 41 25.5 33.5 25.5 28.5C25.5 24 19.5 22 16.5 22ZM27 38C26.723 38 26.5 38.223 26.5 38.5V40.5C26.5 40.777 26.723 41 27 41H36C36.277 41 36.5 40.777 36.5 40.5V38.5C36.5 38.223 36.277 38 36 38H27Z" fill="#FBF1C7"/>
<defs>
<filter id="filter0_f_388_573" x="3.2625" y="3.2625" width="57.475" height="57.475" filterUnits="userSpaceOnUse" color-interpolation-filters="sRGB">
<feFlood flood-opacity="0" result="BackgroundImageFix"/>
<feBlend mode="normal" in="SourceGraphic" in2="BackgroundImageFix" result="shape"/>
<feGaussianBlur stdDeviation="0.61875" result="effect1_foregroundBlur_388_573"/>
</filter>
<linearGradient id="paint0_linear_388_573" x1="4.499" y1="59.49" x2="59.499" y2="4.49" gradientUnits="userSpaceOnUse">
<stop stop-color="#484B4D"/>
<stop offset="1" stop-color="#515557" stop-opacity="0.99608"/>
</linearGradient>
</defs>
</svg>
