<svg width="64" height="64" viewBox="0 0 64 64" fill="none" xmlns="http://www.w3.org/2000/svg">
<g opacity="0.3" filter="url(#filter0_f_398_558)">
<path d="M44.5 4.5H19.5C11.2157 4.5 4.5 11.2157 4.5 19.5V44.5C4.5 52.7843 11.2157 59.5 19.5 59.5H44.5C52.7843 59.5 59.5 52.7843 59.5 44.5V19.5C59.5 11.2157 52.7843 4.5 44.5 4.5Z" fill="#141414"/>
</g>
<path d="M44.5 4.5H19.5C11.2157 4.5 4.5 11.2157 4.5 19.5V44.5C4.5 52.7843 11.2157 59.5 19.5 59.5H44.5C52.7843 59.5 59.5 52.7843 59.5 44.5V19.5C59.5 11.2157 52.7843 4.5 44.5 4.5Z" fill="url(#paint0_linear_398_558)"/>
<g opacity="0.5" filter="url(#filter1_f_398_558)">
<path d="M31.9834 16C40.7876 16 47.9668 23.2192 47.9668 31.9914C47.9668 40.7583 40.7876 47.9082 31.9834 47.9082C23.1792 47.9082 16 40.7583 16 31.9914C16 23.2218 23.1792 16 31.9834 16ZM31.9834 20.6086C30.4845 20.6015 28.999 20.8908 27.6122 21.4598C26.2255 22.0288 24.9649 22.8663 23.9029 23.9241C22.8409 24.9819 21.9984 26.2392 21.4239 27.6236C20.8494 29.0081 20.5542 30.4925 20.5553 31.9914C20.5553 38.2995 25.6487 43.2997 31.9834 43.2997C38.3182 43.2997 43.4116 38.2995 43.4116 31.9914C43.413 30.4923 43.118 29.0076 42.5437 27.6228C41.9694 26.238 41.1269 24.9805 40.0649 23.9224C39.0029 22.8643 37.7421 22.0266 36.3552 21.4574C34.9683 20.8883 33.4826 20.5989 31.9834 20.6059V20.6086Z" fill="black"/>
<path d="M24.463 21.2275L42.7107 39.4753L39.5033 42.6826L21.2556 24.4349L24.463 21.2275Z" fill="black"/>
</g>
<path d="M31.9834 16C40.7876 16 47.9668 23.2192 47.9668 31.9914C47.9668 40.7583 40.7876 47.9082 31.9834 47.9082C23.1792 47.9082 16 40.7583 16 31.9914C16 23.2218 23.1792 16 31.9834 16ZM31.9834 20.6086C30.4845 20.6015 28.999 20.8908 27.6122 21.4598C26.2255 22.0288 24.9649 22.8663 23.9029 23.9241C22.8409 24.9819 21.9984 26.2392 21.4239 27.6236C20.8494 29.0081 20.5542 30.4925 20.5553 31.9914C20.5553 38.2995 25.6487 43.2997 31.9834 43.2997C38.3182 43.2997 43.4116 38.2995 43.4116 31.9914C43.413 30.4923 43.118 29.0076 42.5437 27.6228C41.9694 26.238 41.1269 24.9805 40.0649 23.9224C39.0029 22.8643 37.7421 22.0266 36.3552 21.4574C34.9683 20.8883 33.4826 20.5989 31.9834 20.6059V20.6086Z" fill="#E0574C"/>
<path d="M24.463 21.2275L42.7107 39.4753L39.5033 42.6826L21.2556 24.4349L24.463 21.2275Z" fill="#E0574C"/>
<defs>
<filter id="filter0_f_398_558" x="3.2625" y="3.2625" width="57.475" height="57.475" filterUnits="userSpaceOnUse" color-interpolation-filters="sRGB">
<feFlood flood-opacity="0" result="BackgroundImageFix"/>
<feBlend mode="normal" in="SourceGraphic" in2="BackgroundImageFix" result="shape"/>
<feGaussianBlur stdDeviation="0.61875" result="effect1_foregroundBlur_398_558"/>
</filter>
<filter id="filter1_f_398_558" x="15.6403" y="15.6403" width="32.6861" height="32.6275" filterUnits="userSpaceOnUse" color-interpolation-filters="sRGB">
<feFlood flood-opacity="0" result="BackgroundImageFix"/>
<feBlend mode="normal" in="SourceGraphic" in2="BackgroundImageFix" result="shape"/>
<feGaussianBlur stdDeviation="0.179835" result="effect1_foregroundBlur_398_558"/>
</filter>
<linearGradient id="paint0_linear_398_558" x1="4.499" y1="59.49" x2="59.499" y2="4.49" gradientUnits="userSpaceOnUse">
<stop stop-color="#424142"/>
<stop offset="1" stop-color="#333333" stop-opacity="0.99608"/>
</linearGradient>
</defs>
</svg>
