<svg width="64" height="64" viewBox="0 0 64 64" fill="none" xmlns="http://www.w3.org/2000/svg">
<path d="M45.5 4.5H20.5C12.2157 4.5 5.5 11.2157 5.5 19.5V44.5C5.5 52.7843 12.2157 59.5 20.5 59.5H45.5C53.7843 59.5 60.5 52.7843 60.5 44.5V19.5C60.5 11.2157 53.7843 4.5 45.5 4.5Z" fill="#161C2E"/>
<path d="M42.0492 17.4095C41.8026 16.5698 41.2907 15.8325 40.59 15.308C39.8894 14.7835 39.0377 14.5 38.1625 14.5H36.9798C36.0323 14.5 35.1147 14.8321 34.3867 15.4387C33.6588 16.0452 33.1664 16.8878 32.9954 17.8198L30.97 28.8563L31.4726 27.1367C31.7184 26.2958 32.2302 25.5572 32.9313 25.0317C33.6324 24.5062 34.4849 24.2222 35.3611 24.2223H42.233L45.1152 25.3448L47.8932 24.2223H47.0826C46.2073 24.2223 45.3557 23.9388 44.655 23.4143C43.9544 22.8898 43.4424 22.1525 43.1958 21.3127L42.0492 17.4095Z" fill="url(#paint0_radial_399_559)"/>
<path d="M24.714 46.5738C24.9579 47.4175 25.4693 48.159 26.1712 48.6868C26.8731 49.2145 27.7275 49.4998 28.6057 49.4998H31.1173C33.3139 49.4998 35.1104 47.7491 35.1668 45.5529L35.4401 34.9111L34.8682 36.8652C34.6221 37.7056 34.1102 38.4437 33.4093 38.9688C32.7084 39.4938 31.8562 39.7776 30.9804 39.7775H24.0511L21.5808 38.4374L18.9065 39.7779H19.7038C21.5077 39.7779 23.0942 40.9707 23.5954 42.7039L24.714 46.5738Z" fill="url(#paint1_radial_399_559)"/>
<path d="M37.9869 14.5H23.9526C19.9426 14.5 17.5371 19.7997 15.933 25.0991C14.0325 31.3777 11.5461 39.7745 18.74 39.7745H24.7996C26.6105 39.7745 28.2002 38.5772 28.6979 36.836C29.7514 33.1501 31.598 26.7199 33.0484 21.8248C33.7851 19.3373 34.3994 17.201 35.3412 15.8706C35.8701 15.1248 36.7503 14.5 37.9869 14.5Z" fill="url(#paint2_linear_399_559)"/>
<path d="M37.9869 14.5H23.9526C19.9426 14.5 17.5371 19.7997 15.933 25.0991C14.0325 31.3777 11.5461 39.7745 18.74 39.7745H24.7996C26.6105 39.7745 28.2002 38.5772 28.6979 36.836C29.7514 33.1501 31.598 26.7199 33.0484 21.8248C33.7851 19.3373 34.3994 17.201 35.3412 15.8706C35.8701 15.1248 36.7503 14.5 37.9869 14.5Z" fill="url(#paint3_linear_399_559)"/>
<path d="M28.3604 49.5004H42.395C46.4046 49.5004 48.8105 44.2 50.4146 38.8996C52.3147 32.6199 54.8011 24.2217 47.6076 24.2217H41.5477C40.6667 24.2211 39.8097 24.5077 39.1062 25.0379C38.4028 25.5682 37.8913 26.3133 37.6494 27.1603C36.5959 30.8468 34.7493 37.2784 33.2989 42.1742C32.5618 44.6624 31.9479 46.7991 31.0057 48.1298C30.4772 48.8757 29.5969 49.5004 28.3604 49.5004Z" fill="url(#paint4_radial_399_559)"/>
<path d="M28.3604 49.5004H42.395C46.4046 49.5004 48.8105 44.2 50.4146 38.8996C52.3147 32.6199 54.8011 24.2217 47.6076 24.2217H41.5477C40.6667 24.2211 39.8097 24.5077 39.1062 25.0379C38.4028 25.5682 37.8913 26.3133 37.6494 27.1603C36.5959 30.8468 34.7493 37.2784 33.2989 42.1742C32.5618 44.6624 31.9479 46.7991 31.0057 48.1298C30.4772 48.8757 29.5969 49.5004 28.3604 49.5004Z" fill="url(#paint5_linear_399_559)"/>
<defs>
<radialGradient id="paint0_radial_399_559" cx="0" cy="0" r="1" gradientUnits="userSpaceOnUse" gradientTransform="translate(45.4292 28.9501) rotate(-129.304) scale(15.1404 14.2368)">
<stop offset="0.096" stop-color="#00AEFF"/>
<stop offset="0.773" stop-color="#2253CE"/>
<stop offset="1" stop-color="#0736C4"/>
</radialGradient>
<radialGradient id="paint1_radial_399_559" cx="0" cy="0" r="1" gradientUnits="userSpaceOnUse" gradientTransform="translate(21.9061 39.715) rotate(51.84) scale(13.9923 13.5729)">
<stop stop-color="#FFB657"/>
<stop offset="0.634" stop-color="#FF5F3D"/>
<stop offset="0.923" stop-color="#C02B3C"/>
</radialGradient>
<linearGradient id="paint2_linear_399_559" x1="23.1126" y1="17.5625" x2="25.1149" y2="40.7283" gradientUnits="userSpaceOnUse">
<stop offset="0.156" stop-color="#0D91E1"/>
<stop offset="0.487" stop-color="#52B471"/>
<stop offset="0.652" stop-color="#98BD42"/>
<stop offset="0.937" stop-color="#FFC800"/>
</linearGradient>
<linearGradient id="paint3_linear_399_559" x1="24.8626" y1="14.5" x2="25.956" y2="39.7745" gradientUnits="userSpaceOnUse">
<stop stop-color="#3DCBFF"/>
<stop offset="0.247" stop-color="#0588F7" stop-opacity="0"/>
</linearGradient>
<radialGradient id="paint4_radial_399_559" cx="0" cy="0" r="1" gradientUnits="userSpaceOnUse" gradientTransform="translate(48.3286 21.7465) rotate(109.274) scale(33.5888 40.2385)">
<stop offset="0.066" stop-color="#8C48FF"/>
<stop offset="0.5" stop-color="#F2598A"/>
<stop offset="0.896" stop-color="#FFB152"/>
</radialGradient>
<linearGradient id="paint5_linear_399_559" x1="49.4374" y1="22.6782" x2="49.423" y2="29.5634" gradientUnits="userSpaceOnUse">
<stop offset="0.058" stop-color="#F8ADFA"/>
<stop offset="0.708" stop-color="#A86EDD" stop-opacity="0"/>
</linearGradient>
</defs>
</svg>
