<svg width="64" height="64" viewBox="0 0 64 64" fill="none" xmlns="http://www.w3.org/2000/svg">
<path d="M44.5 4.5H19.5C11.2157 4.5 4.5 11.2157 4.5 19.5V44.5C4.5 52.7843 11.2157 59.5 19.5 59.5H44.5C52.7843 59.5 59.5 52.7843 59.5 44.5V19.5C59.5 11.2157 52.7843 4.5 44.5 4.5Z" fill="url(#paint0_linear_387_1978)"/>
<path d="M27.74 22.7461V39.8707L39.1564 31.3084L27.74 22.7461Z" fill="#F9F9F9"/>
<path d="M51.9594 32.6936L31.9797 12.7139L12 32.6936L31.9797 52.6733L51.9594 32.6936Z" fill="black" fill-opacity="0.11"/>
<path d="M12.0425 31.3088L32.0212 34.1629L51.9999 31.3088L32.0212 11.3301L12.0425 31.3088Z" fill="#956BB3"/>
<path d="M12.0425 31.3086H51.9999L32.0212 51.2873L12.0425 31.3086Z" fill="#40528C"/>
<path opacity="0.1" d="M29.167 25.6006V39.8711L39.1563 32.7358L29.167 25.6006Z" fill="black"/>
<path d="M29.167 24.1738V38.4443L39.1563 31.3091L29.167 24.1738Z" fill="#F9F9F9"/>
<defs>
<linearGradient id="paint0_linear_387_1978" x1="4.5" y1="59.49" x2="59.5" y2="4.49" gradientUnits="userSpaceOnUse">
<stop stop-color="#474672"/>
<stop offset="1" stop-color="#3E3D64"/>
</linearGradient>
</defs>
</svg>
