<svg width="64" height="64" viewBox="0 0 64 64" fill="none" xmlns="http://www.w3.org/2000/svg">
<g opacity="0.3" filter="url(#filter0_f_388_665)">
<path d="M44.5 4.5H19.5C11.2157 4.5 4.5 11.2157 4.5 19.5V44.5C4.5 52.7843 11.2157 59.5 19.5 59.5H44.5C52.7843 59.5 59.5 52.7843 59.5 44.5V19.5C59.5 11.2157 52.7843 4.5 44.5 4.5Z" fill="#141414"/>
</g>
<path d="M44.5 4.5H19.5C11.2157 4.5 4.5 11.2157 4.5 19.5V44.5C4.5 52.7843 11.2157 59.5 19.5 59.5H44.5C52.7843 59.5 59.5 52.7843 59.5 44.5V19.5C59.5 11.2157 52.7843 4.5 44.5 4.5Z" fill="url(#paint0_linear_388_665)"/>
<path opacity="0.1" d="M21.8438 18.1875L16.5 23.5312L18.2812 25.3125L21.8438 21.75L25.4062 25.3125L27.1875 23.5312L21.8438 18.1875ZM42.0312 18.1875L36.6875 23.5312L38.4688 25.3125L42.0312 21.75L45.5938 25.3125L47.375 23.5312L42.0312 18.1875ZM24.8125 27.6875C24.1826 27.6875 23.5785 27.9377 23.1331 28.3831C22.6877 28.8285 22.4375 29.4326 22.4375 30.0625C22.4375 30.6924 22.6877 31.2965 23.1331 31.7419C23.5785 32.1873 24.1826 32.4375 24.8125 32.4375C25.4424 32.4375 26.0465 32.1873 26.4919 31.7419C26.9373 31.2965 27.1875 30.6924 27.1875 30.0625C27.1875 29.4326 26.9373 28.8285 26.4919 28.3831C26.0465 27.9377 25.4424 27.6875 24.8125 27.6875ZM39.0625 27.6875C38.4326 27.6875 37.8285 27.9377 37.3831 28.3831C36.9377 28.8285 36.6875 29.4326 36.6875 30.0625C36.6875 30.6924 36.9377 31.2965 37.3831 31.7419C37.8285 32.1873 38.4326 32.4375 39.0625 32.4375C39.6924 32.4375 40.2965 32.1873 40.7419 31.7419C41.1873 31.2965 41.4375 30.6924 41.4375 30.0625C41.4375 29.4326 41.1873 28.8285 40.7419 28.3831C40.2965 27.9377 39.6924 27.6875 39.0625 27.6875ZM24.8125 34.8125C24.8125 34.8125 22.4375 37.1875 22.4375 40.75C22.4375 44.3125 24.8125 46.6875 24.8125 46.6875H27.1875C27.1875 46.6875 24.8125 44.3125 24.8125 40.75C24.8125 37.1875 27.1875 34.8125 27.1875 34.8125H24.8125ZM29.5625 34.8125V37.1875H31.9375V43.125C31.9375 43.7805 31.4055 44.3125 30.75 44.3125C30.0945 44.3125 29.5625 43.7805 29.5625 43.125H27.1875C27.1875 45.0962 28.7788 46.6875 30.75 46.6875C32.7212 46.6875 34.3125 45.0962 34.3125 43.125V37.1875H35.5V34.8125H29.5625ZM36.6875 34.8125C36.6875 34.8125 39.0625 37.1875 39.0625 40.75C39.0625 44.3125 36.6875 46.6875 36.6875 46.6875H39.0625C39.0625 46.6875 41.4375 44.3125 41.4375 40.75C41.4375 37.1875 39.0625 34.8125 39.0625 34.8125H36.6875Z" fill="black"/>
<path d="M21.8438 17L16.5 22.3438L18.2812 24.125L21.8438 20.5625L25.4062 24.125L27.1875 22.3438L21.8438 17ZM42.0312 17L36.6875 22.3438L38.4688 24.125L42.0312 20.5625L45.5938 24.125L47.375 22.3438L42.0312 17ZM24.8125 26.5C24.1826 26.5 23.5785 26.7502 23.1331 27.1956C22.6877 27.641 22.4375 28.2451 22.4375 28.875C22.4375 29.5049 22.6877 30.109 23.1331 30.5544C23.5785 30.9998 24.1826 31.25 24.8125 31.25C25.4424 31.25 26.0465 30.9998 26.4919 30.5544C26.9373 30.109 27.1875 29.5049 27.1875 28.875C27.1875 28.2451 26.9373 27.641 26.4919 27.1956C26.0465 26.7502 25.4424 26.5 24.8125 26.5ZM39.0625 26.5C38.4326 26.5 37.8285 26.7502 37.3831 27.1956C36.9377 27.641 36.6875 28.2451 36.6875 28.875C36.6875 29.5049 36.9377 30.109 37.3831 30.5544C37.8285 30.9998 38.4326 31.25 39.0625 31.25C39.6924 31.25 40.2965 30.9998 40.7419 30.5544C41.1873 30.109 41.4375 29.5049 41.4375 28.875C41.4375 28.2451 41.1873 27.641 40.7419 27.1956C40.2965 26.7502 39.6924 26.5 39.0625 26.5ZM24.8125 33.625C24.8125 33.625 22.4375 36 22.4375 39.5625C22.4375 43.125 24.8125 45.5 24.8125 45.5H27.1875C27.1875 45.5 24.8125 43.125 24.8125 39.5625C24.8125 36 27.1875 33.625 27.1875 33.625H24.8125ZM29.5625 33.625V36H31.9375V41.9375C31.9375 42.593 31.4055 43.125 30.75 43.125C30.0945 43.125 29.5625 42.593 29.5625 41.9375H27.1875C27.1875 43.9087 28.7788 45.5 30.75 45.5C32.7212 45.5 34.3125 43.9087 34.3125 41.9375V36H35.5V33.625H29.5625ZM36.6875 33.625C36.6875 33.625 39.0625 36 39.0625 39.5625C39.0625 43.125 36.6875 45.5 36.6875 45.5H39.0625C39.0625 45.5 41.4375 43.125 41.4375 39.5625C41.4375 36 39.0625 33.625 39.0625 33.625H36.6875Z" fill="#E9EB89"/>
<defs>
<filter id="filter0_f_388_665" x="3.2625" y="3.2625" width="57.475" height="57.475" filterUnits="userSpaceOnUse" color-interpolation-filters="sRGB">
<feFlood flood-opacity="0" result="BackgroundImageFix"/>
<feBlend mode="normal" in="SourceGraphic" in2="BackgroundImageFix" result="shape"/>
<feGaussianBlur stdDeviation="0.61875" result="effect1_foregroundBlur_388_665"/>
</filter>
<linearGradient id="paint0_linear_388_665" x1="4.499" y1="59.49" x2="59.499" y2="4.49" gradientUnits="userSpaceOnUse">
<stop stop-color="#424242"/>
<stop offset="1" stop-color="#4C4C4C" stop-opacity="0.99608"/>
</linearGradient>
</defs>
</svg>
