<svg width="64" height="64" viewBox="0 0 64 64" fill="none" xmlns="http://www.w3.org/2000/svg">
<g opacity="0.3" filter="url(#filter0_f_388_637)">
<path d="M44.5 4.5H19.5C11.2157 4.5 4.5 11.2157 4.5 19.5V44.5C4.5 52.7843 11.2157 59.5 19.5 59.5H44.5C52.7843 59.5 59.5 52.7843 59.5 44.5V19.5C59.5 11.2157 52.7843 4.5 44.5 4.5Z" fill="#141414"/>
</g>
<path d="M44.5 4.5H19.5C11.2157 4.5 4.5 11.2157 4.5 19.5V44.5C4.5 52.7843 11.2157 59.5 19.5 59.5H44.5C52.7843 59.5 59.5 52.7843 59.5 44.5V19.5C59.5 11.2157 52.7843 4.5 44.5 4.5Z" fill="url(#paint0_linear_388_637)"/>
<path opacity="0.1" d="M18.1633 18.1631V23.9799H21.6534C26.8987 23.9799 31.9291 26.0636 35.6381 29.7726C39.347 33.4815 41.4307 38.5119 41.4307 43.7572V47.2473H47.2475V43.7572C47.2475 36.9692 44.551 30.4593 39.7512 25.6594C34.9514 20.8596 28.4414 18.1631 21.6534 18.1631H18.1633ZM18.1633 29.7968V35.6136H21.0718C25.8881 35.6136 29.797 39.5225 29.797 44.3389V47.2473H35.6139V44.3389C35.6139 36.3116 29.099 29.7968 21.0718 29.7968H18.1633ZM21.6534 40.2671C20.7278 40.2671 19.8401 40.6348 19.1856 41.2893C18.531 41.9438 18.1633 42.8316 18.1633 43.7572C18.1633 44.6828 18.531 45.5705 19.1856 46.2251C19.8401 46.8796 20.7278 47.2473 21.6534 47.2473C22.5791 47.2473 23.4668 46.8796 24.1213 46.2251C24.7758 45.5705 25.1435 44.6828 25.1435 43.7572C25.1435 42.8316 24.7758 41.9438 24.1213 41.2893C23.4668 40.6348 22.5791 40.2671 21.6534 40.2671Z" fill="black"/>
<path d="M17 17V22.8168H20.4901C25.7354 22.8168 30.7658 24.9005 34.4747 28.6095C38.1837 32.3184 40.2674 37.3489 40.2674 42.5941V46.0842H46.0842V42.5941C46.0842 35.8061 43.3877 29.2962 38.5879 24.4963C33.788 19.6965 27.2781 17 20.4901 17H17ZM17 28.6337V34.4505H19.9084C24.7248 34.4505 28.6337 38.3594 28.6337 43.1758V46.0842H34.4505V43.1758C34.4505 35.1485 27.9357 28.6337 19.9084 28.6337H17ZM20.4901 39.104C19.5645 39.104 18.6767 39.4717 18.0222 40.1262C17.3677 40.7808 17 41.6685 17 42.5941C17 43.5197 17.3677 44.4075 18.0222 45.062C18.6767 45.7165 19.5645 46.0842 20.4901 46.0842C21.4157 46.0842 22.3035 45.7165 22.958 45.062C23.6125 44.4075 23.9802 43.5197 23.9802 42.5941C23.9802 41.6685 23.6125 40.7808 22.958 40.1262C22.3035 39.4717 21.4157 39.104 20.4901 39.104Z" fill="#F9F9F9"/>
<defs>
<filter id="filter0_f_388_637" x="3.2625" y="3.2625" width="57.475" height="57.475" filterUnits="userSpaceOnUse" color-interpolation-filters="sRGB">
<feFlood flood-opacity="0" result="BackgroundImageFix"/>
<feBlend mode="normal" in="SourceGraphic" in2="BackgroundImageFix" result="shape"/>
<feGaussianBlur stdDeviation="0.61875" result="effect1_foregroundBlur_388_637"/>
</filter>
<linearGradient id="paint0_linear_388_637" x1="4.499" y1="59.49" x2="59.499" y2="4.49" gradientUnits="userSpaceOnUse">
<stop stop-color="#E97E0B"/>
<stop offset="1" stop-color="#D6740A" stop-opacity="0.99608"/>
</linearGradient>
</defs>
</svg>
