<svg width="64" height="64" viewBox="0 0 64 64" fill="none" xmlns="http://www.w3.org/2000/svg">
<g clip-path="url(#clip0_394_557)">
<path d="M46.9531 4.5H17.0469C10.1174 4.5 4.5 10.1174 4.5 17.0469V46.9531C4.5 53.8826 10.1174 59.5 17.0469 59.5H46.9531C53.8826 59.5 59.5 53.8826 59.5 46.9531V17.0469C59.5 10.1174 53.8826 4.5 46.9531 4.5Z" fill="#0E0E0E"/>
<path d="M46.9531 4.5H17.0469C10.1174 4.5 4.5 10.1174 4.5 17.0469V46.9531C4.5 53.8826 10.1174 59.5 17.0469 59.5H46.9531C53.8826 59.5 59.5 53.8826 59.5 46.9531V17.0469C59.5 10.1174 53.8826 4.5 46.9531 4.5Z" fill="url(#paint0_linear_394_557)"/>
<path d="M48.1128 44.4174C48.076 46.6261 46.2278 48.3769 44.0187 48.3769H27.4138C26.7681 48.3769 26.3297 47.7205 26.5771 47.1241L26.5828 47.1105C27.6747 44.4743 29.4464 42.2497 31.7088 40.6269C31.9902 40.425 32.3297 40.3203 32.6761 40.3203H44.085C46.3327 40.3203 48.1505 42.1611 48.1128 44.4174Z" fill="#FDFBFA"/>
<path d="M36.5863 16.1504C37.232 16.1504 37.6704 16.8068 37.423 17.4032L37.4173 17.4168C36.3254 20.0531 34.5537 22.2776 32.2913 23.9004C32.0099 24.1023 31.6704 24.207 31.324 24.207H19.9814C17.7723 24.207 15.9241 22.4562 15.8873 20.2475C15.8497 17.9912 17.6674 16.1504 19.915 16.1504H36.5863Z" fill="#FDFBFA"/>
<path d="M19.9143 48.3769C19.4005 48.3769 18.8786 48.278 18.3744 48.0693C16.3191 47.2179 15.3431 44.8616 16.1944 42.8064C17.5037 39.6455 19.3804 36.8117 21.7725 34.3838C24.2505 31.8686 27.1729 29.9032 30.4586 28.5423C34.9748 26.6715 38.4922 23.1541 40.3628 18.6381C41.2141 16.5827 43.5705 15.6068 45.6256 16.458C47.681 17.3093 48.657 19.6657 47.8057 21.7209C46.4964 24.8818 44.6197 27.7156 42.2276 30.1435C39.7496 32.6587 36.8272 34.624 33.5415 35.985C29.0253 37.8558 25.5079 41.3731 23.6373 45.8892C22.9949 47.4403 21.4948 48.3769 19.9143 48.3769Z" fill="#FDFBFA"/>
</g>
<defs>
<linearGradient id="paint0_linear_394_557" x1="32" y1="59.5" x2="32" y2="4.5" gradientUnits="userSpaceOnUse">
<stop offset="0.1" stop-color="white" stop-opacity="0"/>
<stop offset="0.9" stop-color="white" stop-opacity="0.1"/>
</linearGradient>
<clipPath id="clip0_394_557">
<rect width="55" height="55" fill="white" transform="translate(4.5 4.5)"/>
</clipPath>
</defs>
</svg>
